<svg width="24" height="24" viewBox="0 0 24 24" fill="none" xmlns="http://www.w3.org/2000/svg">
<path d="M12 0C5.38341 0 7.74843e-05 5.38324 7.74843e-05 12C7.74843e-05 14.0661 0.533843 16.0977 1.54602 17.8904L0.0193818 23.3374C-0.0307051 23.5163 0.0178161 23.7084 0.147207 23.8414C0.246859 23.9441 0.382539 24 0.521761 24C0.5635 24 0.605789 23.9948 0.646978 23.9849L6.33187 22.5767C8.06775 23.5085 10.0226 24 12 24C18.6168 24 24 18.6167 24 12C24 5.38324 18.6168 0 12 0ZM18.0365 16.2345C17.7799 16.9451 16.5486 17.5936 15.957 17.6806C15.4258 17.7585 14.7538 17.7918 14.0161 17.5602C13.5689 17.4194 12.995 17.2325 12.2599 16.919C9.16958 15.6011 7.15155 12.5285 6.99709 12.3255C6.84317 12.1226 5.73915 10.6763 5.73915 9.17944C5.73915 7.6826 6.5348 6.9464 6.81764 6.64173C7.10047 6.33706 7.43384 6.26086 7.63937 6.26086C7.84491 6.26086 8.05004 6.26347 8.23004 6.27184C8.41937 6.28118 8.67352 6.20031 8.9234 6.79413C9.18001 7.40347 9.79622 8.90031 9.87242 9.05326C9.94958 9.20553 10.0008 9.38347 9.8985 9.5864C9.79621 9.78933 9.74514 9.91619 9.59068 10.0941C9.43621 10.2719 9.2672 10.4907 9.12839 10.6273C8.97393 10.7791 8.81384 10.9435 8.99329 11.2481C9.17274 11.5528 9.791 12.5489 10.7072 13.3554C11.8837 14.3916 12.8765 14.713 13.1844 14.8654C13.4922 15.0177 13.6722 14.9922 13.8518 14.7892C14.0312 14.5858 14.6217 13.9006 14.8269 13.5965C15.0319 13.2924 15.2374 13.3424 15.5202 13.4441C15.8031 13.5454 17.3176 14.2811 17.6255 14.4334C17.9333 14.5858 18.1388 14.662 18.2161 14.7887C18.2933 14.915 18.2933 15.5243 18.0365 16.2345Z" fill="currentColor"/>
</svg>
