<svg width="20" height="20" viewBox="0 0 20 20" fill="none" xmlns="http://www.w3.org/2000/svg">
<path d="M12.5996 9.03027C12.5996 8.51408 12.5995 8.17166 12.5781 7.90918C12.5574 7.65562 12.5206 7.54282 12.4854 7.47363C12.3847 7.27606 12.2239 7.11532 12.0264 7.01465C11.9572 6.97943 11.8444 6.94259 11.5908 6.92188C11.3283 6.90045 10.9859 6.90039 10.4697 6.90039H3.62988C3.11353 6.90039 2.7713 6.90043 2.50879 6.92188C2.25504 6.94261 2.14241 6.97941 2.07324 7.01465C1.87573 7.11532 1.7149 7.27611 1.61426 7.47363C1.57907 7.54283 1.54316 7.65581 1.52246 7.90918C1.50104 8.17167 1.5 8.51405 1.5 9.03027V15.8701C1.5 16.3865 1.50101 16.7287 1.52246 16.9912C1.54319 17.2449 1.57902 17.3576 1.61426 17.4268C1.71492 17.6243 1.87567 17.7851 2.07324 17.8857C2.14241 17.921 2.2551 17.9568 2.50879 17.9775C2.7713 17.999 3.11353 18 3.62988 18H10.4697C10.9859 18 11.3283 17.999 11.5908 17.9775C11.8442 17.9568 11.9572 17.9209 12.0264 17.8857C12.2239 17.7851 12.3847 17.6243 12.4854 17.4268C12.5206 17.3576 12.5574 17.245 12.5781 16.9912C12.5996 16.7287 12.5996 16.3865 12.5996 15.8701V9.03027ZM18.7578 10.3496C19.1719 10.3553 19.5027 10.6962 19.4971 11.1104C19.489 11.7037 19.4614 12.2375 19.2217 12.708C18.9772 13.1876 18.5871 13.5779 18.1074 13.8223C17.6369 14.0619 17.1031 14.0896 16.5098 14.0977C16.0958 14.1031 15.7556 13.7715 15.75 13.3574C15.7445 12.9433 16.0761 12.6033 16.4902 12.5977C17.1116 12.5892 17.3076 12.5461 17.4268 12.4854C17.6243 12.3847 17.7851 12.2239 17.8857 12.0264C17.9464 11.9071 17.9887 11.7109 17.9971 11.0898C18.0027 10.6757 18.3436 10.344 18.7578 10.3496ZM18 7.9502V6.15039C18 5.73618 18.3358 5.40039 18.75 5.40039C19.1642 5.40039 19.5 5.73618 19.5 6.15039V7.9502C19.4999 8.36432 19.1641 8.7002 18.75 8.7002C18.3359 8.7002 18.0001 8.36432 18 7.9502ZM8.38965 0.00292969C8.80377 -0.00268244 9.14469 0.328086 9.15039 0.742188C9.156 1.15636 8.82433 1.49732 8.41016 1.50293C7.78908 1.51135 7.59289 1.5536 7.47363 1.61426C7.27611 1.7149 7.11532 1.87573 7.01465 2.07324C6.95391 2.19245 6.91078 2.38842 6.90234 3.00977C6.89673 3.42387 6.55665 3.75549 6.14258 3.75C5.72854 3.74439 5.39695 3.40423 5.40234 2.99023C5.41038 2.39692 5.43809 1.8631 5.67773 1.39258C5.92214 0.912905 6.31237 0.522811 6.79199 0.27832C7.26254 0.0385668 7.79629 0.0109751 8.38965 0.00292969ZM16.5098 0.00292969C17.1032 0.0109715 17.6368 0.0385617 18.1074 0.27832C18.5872 0.522798 18.9772 0.912766 19.2217 1.39258C19.4614 1.86316 19.489 2.39683 19.4971 2.99023C19.5025 3.40417 19.1718 3.7443 18.7578 3.75C18.3436 3.75561 18.0027 3.42394 17.9971 3.00977C17.9886 2.38846 17.9465 2.19245 17.8857 2.07324C17.7851 1.87567 17.6243 1.71492 17.4268 1.61426C17.3076 1.55353 17.1115 1.51137 16.4902 1.50293C16.0761 1.49732 15.7444 1.15636 15.75 0.742188C15.7557 0.32822 16.0958 -0.00246808 16.5098 0.00292969ZM13.3496 0C13.7638 0 14.0996 0.335786 14.0996 0.75C14.0996 1.16421 13.7638 1.5 13.3496 1.5H11.5498C11.1357 1.49987 10.7998 1.16413 10.7998 0.75C10.7998 0.335867 11.1357 0.000130882 11.5498 0H13.3496ZM14.0996 15.8701C14.0996 16.3617 14.1008 16.7755 14.0732 17.1133C14.0449 17.4597 13.9831 17.7916 13.8223 18.1074C13.5779 18.5871 13.1876 18.9772 12.708 19.2217C12.3921 19.3826 12.0594 19.4443 11.7129 19.4727C11.3752 19.5002 10.9612 19.5 10.4697 19.5H3.62988C3.13826 19.5 2.72447 19.5003 2.38672 19.4727C2.0402 19.4443 1.70844 19.3826 1.39258 19.2217C0.912766 18.9772 0.522798 18.5872 0.27832 18.1074C0.117393 17.7916 0.0556554 17.4598 0.0273438 17.1133C-0.000251478 16.7755 -7.82222e-09 16.3617 8.55142e-08 15.8701V9.03027C8.55142e-08 8.53879 -0.000221442 8.12482 0.0273438 7.78711C0.0556568 7.44058 0.117376 7.10786 0.27832 6.79199C0.522811 6.31237 0.912905 5.92214 1.39258 5.67773C1.70837 5.5169 2.04029 5.45506 2.38672 5.42676C2.72446 5.39917 3.13829 5.40039 3.62988 5.40039H10.4697C10.9612 5.40039 11.3752 5.3992 11.7129 5.42676C12.0594 5.45507 12.3921 5.51679 12.708 5.67773C13.1877 5.92219 13.5778 6.31232 13.8223 6.79199C13.9832 7.10786 14.0449 7.44058 14.0732 7.78711C14.1008 8.12481 14.0996 8.53881 14.0996 9.03027V15.8701Z" fill="currentColor"/>
</svg>
