<svg width="23" height="31" viewBox="0 0 23 31" fill="none" xmlns="http://www.w3.org/2000/svg">
<path fill-rule="evenodd" clip-rule="evenodd" d="M6.93729 3.54029L7.8288 4.42526C8.10999 4.70439 8.1108 5.15776 7.83061 5.43788C7.55042 5.71801 7.09534 5.71882 6.81415 5.43969L4.69037 3.33147C4.40847 3.05163 4.40847 2.59688 4.69037 2.31704L6.81415 0.20882C7.09534 -0.0703095 7.55042 -0.0695019 7.83061 0.210624C8.1108 0.490749 8.10999 0.944115 7.8288 1.22324L6.93729 2.10822H17.2845C17.6814 2.10822 18.0032 2.4288 18.0032 2.82425C18.0032 3.21971 17.6814 3.54029 17.2845 3.54029H6.93729ZM17.3379 7.16025C16.8939 6.71956 16.1731 6.71956 15.7291 7.16025L5.78568 17.0309C5.37928 17.4343 4.68558 17.2241 4.57346 16.6636L3.14114 9.50253C3.07972 9.22242 2.88535 8.98773 2.61769 8.87386L2.55835 8.84861C2.25533 8.7197 1.90411 8.78725 1.67193 9.01773C1.51838 9.17016 1.43414 9.37733 1.4376 9.59174L1.62088 20.9325C1.65677 23.1534 2.52323 25.2822 4.05253 26.905L4.76117 27.657C5.70637 28.6599 6.96859 29.3129 8.33919 29.5073C9.04172 29.6069 9.75639 29.5836 10.4508 29.4385L10.5141 29.4253C11.6787 29.1819 12.7524 28.6232 13.6162 27.8115L18.4873 23.234L18.6072 23.1149C19.0498 22.6756 19.0498 21.9644 18.6072 21.5252C18.2679 21.1883 17.8526 21.1384 17.4721 21.2686C17.0967 21.3971 16.6444 21.4241 16.3642 21.1439C16.084 20.8638 16.0849 20.4105 16.366 20.1313L17.3379 19.1666C17.7804 18.7274 17.7804 18.0162 17.3379 17.5769C16.8939 17.1362 16.1731 17.1362 15.7291 17.5769L14.7573 18.5416C14.4761 18.8207 14.0211 18.8199 13.7409 18.5398C13.4607 18.2597 13.4615 17.8063 13.7427 17.5272L21.2306 10.0941C21.6731 9.65479 21.6731 8.94362 21.2306 8.50434C20.7867 8.06364 20.0658 8.06364 19.6219 8.50434L12.1339 15.9374C11.8528 16.2166 11.3977 16.2157 11.1175 15.9356C10.8373 15.6555 10.8381 15.2021 11.1193 14.923L17.3379 8.74999C17.7804 8.3107 17.7804 7.59954 17.3379 7.16025ZM18.9864 7.17884C18.8656 6.80094 18.6543 6.44542 18.3525 6.14583C17.3476 5.14828 15.7194 5.14828 14.7145 6.14583L5.72114 15.0733L4.54983 9.21717L4.54784 9.20757C4.38947 8.46871 3.8796 7.85354 3.18224 7.55685L3.12291 7.53161C2.28168 7.17373 1.30537 7.35996 0.657277 8.00331C0.227904 8.42954 -0.00946835 9.01096 0.000289383 9.61479L0.183567 20.9555C0.225228 23.5333 1.23093 26.0032 3.00451 27.8852L3.71316 28.6372C4.88248 29.878 6.4431 30.6849 8.13661 30.9251C9.00471 31.0482 9.88783 31.0194 10.746 30.8401L10.8093 30.8268C12.2328 30.5294 13.5458 29.8463 14.6026 28.8532L19.488 24.2622L19.6219 24.1293C20.6282 23.1304 20.6282 21.5097 19.6219 20.5107C19.3264 20.2174 18.977 20.0103 18.6055 19.8895C19.3503 18.8882 19.2659 17.4692 18.3525 16.5625C18.0651 16.2772 17.7268 16.0735 17.3666 15.9514L22.2453 11.1085C23.2516 10.1095 23.2516 8.48886 22.2453 7.48991C21.3588 6.60991 19.9872 6.50622 18.9864 7.17884Z" fill="currentColor"/>
</svg>
