<svg width="24" height="22" viewBox="0 0 24 22" fill="none" xmlns="http://www.w3.org/2000/svg">
<path fill-rule="evenodd" clip-rule="evenodd" d="M22.584 0.00161857C22.3182 0.0133742 22.0594 0.0879507 21.826 0.18214C21.5951 0.2757 20.2653 0.847773 18.3016 1.69401C16.3379 2.54024 13.7853 3.64222 11.2549 4.73494C6.34557 6.85497 1.51877 8.94195 1.23427 9.06496C1.24918 9.05944 1.25729 9.05671 1.25729 9.05671L1.22104 9.07068C1.22104 9.07068 1.2255 9.06875 1.23427 9.06496C1.1585 9.093 0.907114 9.19297 0.652827 9.37155C0.500672 9.4784 0.336977 9.61636 0.202946 9.81748C0.0689143 10.0186 -0.0290713 10.3036 0.00785478 10.6051C0.137556 11.664 1.22637 11.9644 1.22637 11.9644L1.23064 11.9665L5.52069 13.4465C5.894 13.5753 6.29384 13.6074 6.68293 13.5399C7.00666 13.4838 7.31492 13.3601 7.58763 13.1768L16.7089 7.04733C14.6562 9.48154 12.2996 12.371 10.4051 14.5613C10.0402 14.9832 10.0845 15.6219 10.5076 15.9853L12.8103 17.9635L17.6545 21.7706L17.7153 21.7985C18.5632 22.178 19.33 21.9663 19.7547 21.618C20.1793 21.2697 20.3463 20.8207 20.3463 20.8207L20.3645 20.7734L23.9241 2.07332C24.0151 1.65496 24.0281 1.29333 23.9422 0.966549C23.8563 0.639772 23.6476 0.355707 23.3857 0.198258C23.1238 0.0408097 22.8499 -0.0101371 22.584 0.00161857Z" fill="currentColor"/>
</svg>
