<svg width="24" height="24" viewBox="0 0 24 24" fill="none" xmlns="http://www.w3.org/2000/svg">
<path d="M19.2308 23.9998C18.1849 23.9998 16.7157 23.6216 14.5156 22.3926C11.8402 20.8926 9.77084 19.5078 7.10994 16.8543C4.54442 14.2909 3.29595 12.6313 1.54863 9.4523C-0.425348 5.86297 -0.0888504 3.98152 0.287298 3.1774C0.735247 2.21632 1.39645 1.64149 2.25109 1.07094C2.73652 0.75296 3.25023 0.480375 3.78569 0.256649C3.83927 0.233613 3.88911 0.211648 3.93358 0.191827C4.19881 0.072361 4.60068 -0.108177 5.10971 0.0846825C5.44942 0.212184 5.7527 0.47308 6.22744 0.941836C7.20103 1.90185 8.53148 4.03991 9.0223 5.08992C9.35183 5.79761 9.56991 6.26476 9.57045 6.78869C9.57045 7.40209 9.26181 7.87513 8.88727 8.38568C8.81708 8.48157 8.74742 8.57318 8.67991 8.66211C8.27214 9.19783 8.18266 9.35265 8.2416 9.62908C8.36109 10.1846 9.25217 11.8384 10.7166 13.2993C12.181 14.7602 13.7874 15.5949 14.3452 15.7138C14.6334 15.7754 14.7915 15.6822 15.3445 15.26C15.4238 15.1995 15.5052 15.1368 15.5904 15.0741C16.1616 14.6493 16.6128 14.3488 17.2118 14.3488H17.215C17.7364 14.3488 18.1827 14.5749 18.9222 14.9477C19.8867 15.4342 22.0894 16.7472 23.0555 17.7217C23.5254 18.1953 23.7875 18.4974 23.9155 18.8365C24.1084 19.3471 23.9268 19.7472 23.8084 20.0151C23.7885 20.0596 23.7666 20.1083 23.7435 20.1624C23.518 20.6968 23.2437 21.2094 22.9242 21.6935C22.3547 22.5453 21.7776 23.2048 20.8142 23.6532C20.3195 23.8871 19.778 24.0057 19.2308 23.9998Z" fill="currentColor"/>
</svg>
