<svg width="51" height="51" fill="none" xmlns="http://www.w3.org/2000/svg"><path d="M30.893 15.807c-3.573-4.082-10.72-1.53-10.72 4.082s9.189 9.183 8.678 12.755c-.408 2.857-4.254 5.952-6.126 7.143M26.81 9.174c-4.084-1.531-4.084 4.082 0 2.551m-1.02 5.102v7.143m0 7.143v3.061m0 6.633v2.551M31.403.5h-12.03a2.041 2.041 0 0 0-2.042 2.04v8.82L9.69 6.95a2.043 2.043 0 0 0-2.79.748L.774 18.302a2.04 2.04 0 0 0 .748 2.788l7.642 4.41-7.643 4.41a2.04 2.04 0 0 0-.747 2.788L6.9 43.302a2.043 2.043 0 0 0 2.79.747l7.642-4.41v8.82c0 1.127.914 2.041 2.042 2.041h12.252a2.041 2.041 0 0 0 2.042-2.04v-8.821l7.643 4.41c.977.564 2.225.23 2.79-.747l5.862-10.149M33.668 3.561v7.8l7.643-4.41a2.043 2.043 0 0 1 2.79.747l6.125 10.604a2.04 2.04 0 0 1-.747 2.788l-7.643 4.41 7.435 4.29" stroke="#653A34" stroke-linecap="round" stroke-linejoin="round"/></svg>