<svg width="65" height="26" fill="none" xmlns="http://www.w3.org/2000/svg"><path d="m7.401 26 1.91-7.21c-.282.135-.546.251-.814.354-1.01.381-2.05.596-3.134.57-1.14-.028-2.209-.305-3.159-.952-1.1-.747-1.77-1.785-2.06-3.07-.234-1.04-.171-2.076.103-3.1.476-1.774 1.449-3.252 2.786-4.497 1.199-1.116 2.579-1.92 4.164-2.357 1.154-.317 2.322-.403 3.5-.152 1.243.265 2.289.86 3.073 1.87.608.784.93 1.683 1.033 2.661.097.915-.028 1.807-.27 2.688-.327 1.195-.642 2.393-.96 3.59-.688 2.594-1.358 5.194-2.07 7.782-.28 1.018-1.005 1.614-2.052 1.805-.012.002-.022.01-.034.016C8.747 26 8.073 26 7.4 26ZM3.774 13.504c.004.068.004.177.018.283.127 1.058.678 1.791 1.695 2.154.564.201 1.15.213 1.73.09 1.4-.296 2.464-1.077 3.227-2.27.441-.693.677-1.452.629-2.283-.065-1.09-.755-1.963-1.802-2.273a3.347 3.347 0 0 0-1.735-.036c-1.275.297-2.27 1.012-3.01 2.076a3.994 3.994 0 0 0-.752 2.259ZM47.085.002l-.954 3.6c-.029.022-.059.012-.09.012-.58 0-1.163.004-1.744 0-.41-.002-.777-.125-1.055-.438-.34-.38-.4-.831-.283-1.307.155-.624.329-1.247.494-1.869 1.21 0 2.421 0 3.632.002ZM65 5.502c-.079.208-.123.427-.18.644-.147.544-.288 1.09-.431 1.636-.012.047-.03.073-.087.07l-2.308-.001c-.012 0-.024-.004-.044-.006l.635-2.402H65v.059ZM20.876 19.718a5.671 5.671 0 0 1-2.578-.678c-1.425-.773-2.26-1.974-2.56-3.55-.186-.974-.113-1.94.143-2.893.464-1.727 1.398-3.174 2.683-4.405a10.06 10.06 0 0 1 3.928-2.355 7.874 7.874 0 0 1 2.67-.392c1.181.038 2.283.344 3.25 1.046 1.09.795 1.726 1.88 1.964 3.197.22 1.212.06 2.393-.355 3.543-.603 1.673-1.63 3.05-2.986 4.19-1.154.97-2.455 1.667-3.922 2.044-.647.169-1.309.251-2.237.253Zm-1.467-6.216c.004.069.004.177.019.283.127 1.059.675 1.793 1.69 2.155.565.202 1.15.214 1.731.092 1.404-.297 2.47-1.08 3.232-2.277.44-.69.674-1.447.626-2.275-.065-1.09-.753-1.963-1.8-2.274a3.346 3.346 0 0 0-1.735-.036c-1.275.297-2.27 1.011-3.012 2.074a4.003 4.003 0 0 0-.75 2.258Zm23.768 6.216c-.01-.064.036-.086.065-.114a8311.09 8311.09 0 0 1 5.193-5.106c.627-.616 1.252-1.233 1.88-1.847.05-.05.062-.086.028-.155-1.13-2.314-2.258-4.631-3.387-6.948l-.039-.087c.017-.024.035-.018.05-.018.626 0 1.252-.006 1.877.002.583.008 1.128.16 1.61.5.347.245.615.558.795.942.456.976.94 1.94 1.408 2.91l.194.395c.246-.257.474-.502.71-.737.831-.823 1.672-1.637 2.498-2.468.692-.694 1.489-1.198 2.447-1.435.284-.07.573-.11.867-.11.606-.003 1.21 0 1.816 0h.073l-.505.503-6.68 6.566c-.05.05-.058.088-.026.154 1.124 2.303 2.246 4.61 3.37 6.915.02.04.054.078.022.134a.701.701 0 0 1-.067.004c-.605 0-1.21.01-1.816-.002-.777-.016-1.462-.263-2.005-.839a2.605 2.605 0 0 1-.444-.677c-.508-1.056-1.02-2.108-1.531-3.162-.004-.008-.012-.016-.018-.026-.035.002-.049.03-.069.05-1.02 1.004-2.05 2-3.06 3.014-.459.46-.949.867-1.532 1.16a4.395 4.395 0 0 1-2.054.486c-.556-.012-1.111-.004-1.67-.004Zm-13.527-.004.218-.831.589-2.217c.198-.745.393-1.491.591-2.236.337-1.275.676-2.55 1.015-3.825.145-.548.28-1.1.44-1.644.25-.852.734-1.564 1.386-2.163.694-.638 1.497-1.076 2.43-1.26a3.79 3.79 0 0 1 .56-.069c1.258-.052 2.517-.01 3.778-.022.006 0 .012.002.035.008-.32 1.199-.636 2.397-.953 3.594-.036.02-.074.01-.109.01h-1.593c-1.013.004-1.727.498-2.226 1.343-.16.27-.214.574-.292.872-.333 1.248-.666 2.497-.997 3.746-.355 1.343-.71 2.686-1.063 4.03l-.18.666c-1.208-.002-2.41-.002-3.63-.002Zm12.363-14.27c.65 0 1.29-.018 1.929.004.837.029 1.394.715 1.273 1.54-.059.408-.192.8-.297 1.195-.875 3.31-1.755 6.622-2.633 9.932l-.403 1.52c-.006.026-.016.05-.022.076h-3.63c1.261-4.756 2.52-9.508 3.783-14.267Z" fill="#000"/></svg>