<svg width="51" height="51" viewBox="0 0 51 51" fill="none" xmlns="http://www.w3.org/2000/svg">
<path d="M30.8933 15.807C27.3198 11.7254 20.1728 14.2764 20.1728 19.8887C20.1728 25.5009 29.3618 29.0723 28.8513 32.6437C28.4429 35.5009 24.5971 38.5961 22.7253 39.7866M26.8093 9.17359C22.7253 7.64286 22.7253 13.2556 26.8093 11.7254M25.7883 16.8273V23.9702M25.7883 31.1131V34.1743M25.7883 40.8069V43.358M31.4038 0.5H19.374C18.2463 0.5 17.332 1.4137 17.332 2.54082V11.3606L9.68955 6.95079C8.71288 6.38723 7.46402 6.72167 6.90014 7.69778L0.774166 18.3022C0.210286 19.2783 0.544916 20.5264 1.52159 21.09L9.1642 25.4999L1.52134 29.91C0.544668 30.4735 0.210036 31.7217 0.773916 32.6978L6.89989 43.3022C7.46377 44.2783 8.71263 44.6127 9.6893 44.0492L17.332 39.6392V48.4592C17.332 49.5863 18.2463 50.5 19.374 50.5H31.626C32.7537 50.5 33.668 49.5863 33.668 48.4592V39.639L41.3109 44.0492C42.2876 44.6127 43.5365 44.2783 44.1004 43.3022L49.9633 33.1531M33.668 3.56122V11.3608L41.3107 6.95079C42.2874 6.38724 43.5362 6.72168 44.1001 7.69778L50.2261 18.3022C50.79 19.2783 50.4553 20.5264 49.4787 21.09L41.8361 25.4999L49.2712 29.7901" stroke="#653A34" stroke-linecap="round" stroke-linejoin="round"/>
</svg>
