<svg style="display: none;" aria-hidden="true" xmlns="http://www.w3.org/2000/svg" xmlns:xlink="http://www.w3.org/1999/xlink"><symbol fill="none" viewBox="0 0 16 16" id="icon-arrow-rotate" xmlns="http://www.w3.org/2000/svg"><path d="M16 15a1 1 0 1 1-2 0V3.414L1.707 15.707a1 1 0 1 1-1.414-1.414L12.586 2H1a1 1 0 0 1 0-2h14a1 1 0 0 1 1 1v14Z" fill="currentColor"/></symbol><symbol fill="none" viewBox="0 0 20 17" id="icon-burger" xmlns="http://www.w3.org/2000/svg"><rect width="20" height="3" rx="1" fill="currentColor"/><rect x="5" y="7" width="15" height="3" rx="1" fill="currentColor"/><rect y="14" width="20" height="3" rx="1" fill="currentColor"/></symbol><symbol fill="none" viewBox="0 0 14 14" id="icon-close" xmlns="http://www.w3.org/2000/svg"><path d="M14 .846 7.846 7 14 13.155l-.845.845L7 7.846.846 14 0 13.155 6.154 7 0 .846.846 0 7 6.154 13.155 0 14 .846Z" fill="currentColor"/></symbol><symbol fill="none" viewBox="0 0 20 20" id="icon-copy" xmlns="http://www.w3.org/2000/svg"><path d="M12.6 9.03c0-.516 0-.858-.022-1.12-.02-.254-.057-.367-.093-.436a1.051 1.051 0 0 0-.459-.46c-.069-.035-.182-.071-.435-.092A15.49 15.49 0 0 0 10.47 6.9H3.63c-.516 0-.859 0-1.121.022-.254.02-.367.057-.436.093-.197.1-.358.261-.459.459-.035.069-.07.182-.092.435-.021.263-.022.605-.022 1.121v6.84c0 .517.001.859.022 1.121.021.254.057.367.092.436.1.197.262.358.46.459.068.035.181.07.435.091.262.022.605.023 1.12.023h6.84c.517 0 .86-.001 1.122-.023.253-.02.366-.056.435-.091.198-.1.359-.262.46-.46.035-.068.071-.181.092-.435.022-.262.022-.604.022-1.12V9.03Zm6.158 1.32a.75.75 0 0 1 .74.76c-.009.594-.037 1.128-.276 1.598-.245.48-.635.87-1.115 1.114-.47.24-1.004.268-1.597.276a.75.75 0 0 1-.02-1.5c.622-.009.818-.052.937-.113.197-.1.358-.261.459-.459.06-.119.103-.315.111-.936a.75.75 0 0 1 .76-.74ZM18 7.95v-1.8a.75.75 0 0 1 1.5 0v1.8a.75.75 0 0 1-1.5 0ZM8.39.003a.75.75 0 1 1 .02 1.5c-.62.008-.817.05-.936.111-.198.1-.359.262-.46.46-.06.118-.103.314-.112.936a.75.75 0 0 1-1.5-.02c.008-.593.036-1.127.276-1.597A2.55 2.55 0 0 1 6.792.278C7.262.038 7.796.011 8.39.003Zm8.12 0c.593.008 1.127.036 1.597.275.48.245.87.635 1.115 1.115.24.47.267 1.004.275 1.597a.75.75 0 1 1-1.5.02c-.008-.622-.05-.818-.111-.937a1.05 1.05 0 0 0-.46-.459c-.118-.06-.314-.103-.936-.111a.751.751 0 0 1 .02-1.5ZM13.35 0a.75.75 0 0 1 0 1.5h-1.8a.75.75 0 0 1 0-1.5h1.8Zm.75 15.87c0 .492 0 .906-.027 1.243-.028.347-.09.679-.25.994-.245.48-.635.87-1.115 1.115-.316.16-.649.222-.995.25-.338.028-.752.028-1.243.028H3.63c-.492 0-.906 0-1.243-.027-.347-.029-.679-.09-.994-.251a2.55 2.55 0 0 1-1.115-1.115c-.16-.315-.222-.647-.25-.994C0 16.776 0 16.362 0 15.87V9.03c0-.491 0-.905.027-1.243.029-.346.09-.68.251-.995a2.55 2.55 0 0 1 1.115-1.114c.315-.161.647-.223.994-.251.337-.028.751-.027 1.243-.027h6.84c.491 0 .905 0 1.243.027.346.028.68.09.995.25.48.245.87.635 1.114 1.115.161.316.223.649.251.995.028.338.027.752.027 1.243v6.84Z" fill="currentColor"/></symbol><symbol fill="none" viewBox="0 0 15 7" id="icon-down" xmlns="http://www.w3.org/2000/svg"><path d="M14.023.14a.598.598 0 0 1 .834.063.577.577 0 0 1-.063.823L7.885 6.86a.6.6 0 0 1-.77 0L.205 1.026A.577.577 0 0 1 .143.203.598.598 0 0 1 .977.141L7.5 5.649 14.023.14Z" fill="currentColor"/></symbol><symbol fill="none" viewBox="0 0 24 24" id="icon-max" xmlns="http://www.w3.org/2000/svg"><path fill-rule="evenodd" clip-rule="evenodd" d="M12.258 23.931c-2.355 0-3.45-.345-5.353-1.726-1.203 1.554-5.014 2.768-5.18.69 0-1.56-.344-2.877-.734-4.316C.527 16.806 0 14.832 0 11.972 0 5.14 5.582 0 12.195 0 18.814 0 24 5.393 24 12.035c.022 6.539-5.231 11.862-11.742 11.896Zm.097-18.026c-3.22-.167-5.73 2.072-6.286 5.583-.459 2.907.355 6.446 1.048 6.63.333.081 1.17-.598 1.691-1.122a5.943 5.943 0 0 0 2.911 1.042c3.337.161 6.189-2.39 6.413-5.738.13-3.355-2.44-6.197-5.777-6.39v-.005Z" fill="currentColor"/></symbol><symbol fill="none" viewBox="0 0 7 15" id="icon-next" xmlns="http://www.w3.org/2000/svg"><path d="M.14.977A.598.598 0 0 1 .204.143a.577.577 0 0 1 .823.063L6.86 7.114a.6.6 0 0 1 0 .772l-5.834 6.908a.577.577 0 0 1-.823.063.598.598 0 0 1-.062-.834L5.649 7.5.14.977Z" fill="currentColor"/></symbol><symbol fill="none" viewBox="0 0 40 40" id="icon-play" xmlns="http://www.w3.org/2000/svg"><path d="M38.462 17.3c2.05 1.2 2.05 4.2 0 5.4L9.614 39.578c-2.05 1.2-4.615-.3-4.615-2.7V3.122c0-2.4 2.564-3.9 4.615-2.7L38.462 17.3Z" fill="currentColor"/></symbol><symbol fill="none" viewBox="0 0 7 15" id="icon-prev" xmlns="http://www.w3.org/2000/svg"><path d="M6.86.977a.598.598 0 0 0-.063-.834.577.577 0 0 0-.823.063L.14 7.114a.6.6 0 0 0 0 .772l5.834 6.908c.21.248.578.276.823.063a.598.598 0 0 0 .062-.834L1.351 7.5 6.86.977Z" fill="currentColor"/></symbol><symbol fill="none" viewBox="0 0 16 16" id="icon-service-points" xmlns="http://www.w3.org/2000/svg"><path d="M0 13a1 1 0 0 1 1-1h2a1 1 0 0 1 1 1v2a1 1 0 0 1-1 1H1a1 1 0 0 1-1-1v-2ZM6 13a1 1 0 0 1 1-1h2a1 1 0 0 1 1 1v2a1 1 0 0 1-1 1H7a1 1 0 0 1-1-1v-2ZM6 7a1 1 0 0 1 1-1h2a1 1 0 0 1 1 1v2a1 1 0 0 1-1 1H7a1 1 0 0 1-1-1V7ZM12 13a1 1 0 0 1 1-1h2a1 1 0 0 1 1 1v2a1 1 0 0 1-1 1h-2a1 1 0 0 1-1-1v-2ZM12 7a1 1 0 0 1 1-1h2a1 1 0 0 1 1 1v2a1 1 0 0 1-1 1h-2a1 1 0 0 1-1-1V7ZM12 1a1 1 0 0 1 1-1h2a1 1 0 0 1 1 1v2a1 1 0 0 1-1 1h-2a1 1 0 0 1-1-1V1Z" fill="currentColor"/></symbol><symbol fill="none" viewBox="0 0 23 31" id="icon-swipe" xmlns="http://www.w3.org/2000/svg"><path fill-rule="evenodd" clip-rule="evenodd" d="m6.937 3.54.892.885c.281.28.282.733.002 1.013a.72.72 0 0 1-1.017.002L4.69 3.33a.714.714 0 0 1 0-1.014L6.814.209A.72.72 0 0 1 7.831.21c.28.28.279.733-.002 1.012l-.892.885h10.348c.396 0 .718.32.718.716a.717.717 0 0 1-.718.716H6.937Zm10.4 3.62a1.144 1.144 0 0 0-1.608 0l-9.943 9.87a.72.72 0 0 1-1.213-.366L3.141 9.503a.892.892 0 0 0-.523-.63l-.06-.024a.81.81 0 0 0-.886.169.79.79 0 0 0-.234.574l.183 11.34a8.918 8.918 0 0 0 2.432 5.973l.708.752a6.092 6.092 0 0 0 3.578 1.85c.703.1 1.417.077 2.112-.069l.063-.013a6.46 6.46 0 0 0 3.102-1.614l4.871-4.577.12-.12c.443-.438.443-1.15 0-1.589a1.057 1.057 0 0 0-1.135-.256c-.375.128-.828.155-1.108-.125a.714.714 0 0 1 .002-1.013l.972-.964c.442-.44.442-1.15 0-1.59a1.144 1.144 0 0 0-1.609 0l-.972.965a.72.72 0 0 1-1.016-.002.714.714 0 0 1 .002-1.013l7.488-7.433c.442-.44.442-1.15 0-1.59a1.144 1.144 0 0 0-1.61 0l-7.487 7.433a.72.72 0 0 1-1.017-.001.714.714 0 0 1 .002-1.013l6.219-6.173c.442-.44.442-1.15 0-1.59Zm1.65.019a2.544 2.544 0 0 0-.634-1.033 2.585 2.585 0 0 0-3.639 0l-8.993 8.927L4.55 9.217l-.002-.01a2.325 2.325 0 0 0-1.366-1.65l-.06-.025a2.251 2.251 0 0 0-2.465.471A2.22 2.22 0 0 0 0 9.615l.184 11.34a10.347 10.347 0 0 0 2.82 6.93l.71.752a7.53 7.53 0 0 0 4.423 2.288 7.566 7.566 0 0 0 2.609-.085l.063-.013a7.897 7.897 0 0 0 3.794-1.974l4.885-4.59.134-.134a2.546 2.546 0 0 0 0-3.618 2.566 2.566 0 0 0-1.017-.621 2.546 2.546 0 0 0-.253-3.328 2.565 2.565 0 0 0-.985-.61l4.878-4.844a2.546 2.546 0 0 0 0-3.618 2.587 2.587 0 0 0-3.259-.311Z" fill="currentColor"/></symbol><symbol fill="none" viewBox="0 0 24 24" id="icon-tel" xmlns="http://www.w3.org/2000/svg"><path d="M19.23 24c-1.045 0-2.514-.378-4.714-1.607-2.676-1.5-4.745-2.885-7.406-5.539-2.566-2.563-3.814-4.223-5.561-7.402C-.425 5.863-.09 3.982.287 3.177c.448-.96 1.11-1.536 1.964-2.106.486-.318 1-.59 1.535-.814l.148-.065c.265-.12.667-.3 1.176-.107.34.127.643.388 1.117.857.974.96 2.304 3.098 2.795 4.148.33.708.548 1.175.548 1.699 0 .613-.308 1.086-.683 1.597-.07.096-.14.187-.207.276-.408.536-.497.69-.438.967.12.556 1.01 2.21 2.475 3.67 1.464 1.461 3.07 2.296 3.628 2.415.288.061.446-.032 1-.454.079-.06.16-.123.245-.186.572-.425 1.023-.725 1.622-.725h.003c.521 0 .968.226 1.707.599.965.486 3.167 1.8 4.133 2.774.47.473.733.775.86 1.114.193.511.012.911-.107 1.18l-.064.146a9.448 9.448 0 0 1-.82 1.532c-.57.851-1.146 1.51-2.11 1.96a3.614 3.614 0 0 1-1.583.346Z" fill="currentColor"/></symbol><symbol fill="none" viewBox="0 0 24 22" id="icon-tg" xmlns="http://www.w3.org/2000/svg"><path fill-rule="evenodd" clip-rule="evenodd" d="M22.584.002a2.324 2.324 0 0 0-.758.18c-.23.094-1.56.666-3.524 1.512s-4.517 1.948-7.047 3.04c-4.91 2.121-9.736 4.208-10.02 4.331a.915.915 0 0 1 .022-.008l-.036.014.013-.006a2.702 2.702 0 0 0-.581.307 1.686 1.686 0 0 0-.45.445 1.187 1.187 0 0 0-.195.788c.13 1.059 1.218 1.36 1.218 1.36l.005.002 4.29 1.48a2.338 2.338 0 0 0 2.067-.27l9.12-6.13c-2.052 2.435-4.408 5.324-6.303 7.514-.365.422-.32 1.06.103 1.424l2.302 1.979 4.844 3.807.061.027c.848.38 1.615.168 2.04-.18.424-.348.591-.797.591-.797l.018-.048 3.56-18.7c.091-.418.104-.78.018-1.106a1.285 1.285 0 0 0-.556-.769 1.404 1.404 0 0 0-.802-.196Z" fill="currentColor"/></symbol><symbol fill="none" viewBox="0 0 24 24" id="icon-wh" xmlns="http://www.w3.org/2000/svg"><path d="M12 0C5.383 0 0 5.383 0 12c0 2.066.534 4.098 1.546 5.89L.019 23.337a.521.521 0 0 0 .628.648l5.685-1.408A12.008 12.008 0 0 0 12 24c6.617 0 12-5.383 12-12S18.617 0 12 0Zm6.037 16.235c-.257.71-1.488 1.359-2.08 1.446-.531.078-1.203.11-1.94-.12a18.044 18.044 0 0 1-1.757-.642c-3.09-1.318-5.108-4.39-5.263-4.594-.154-.202-1.258-1.649-1.258-3.146 0-1.496.796-2.233 1.079-2.537.282-.305.616-.381.821-.381.206 0 .411.002.591.01.19.01.444-.07.693.523.257.61.873 2.106.95 2.26.077.152.128.33.026.532-.103.203-.154.33-.308.508-.155.178-.324.397-.463.533-.154.152-.314.316-.135.621.18.305.798 1.3 1.714 2.107 1.177 1.037 2.17 1.358 2.477 1.51.308.153.488.127.668-.076.18-.203.77-.888.975-1.192.205-.305.41-.255.693-.153.283.101 1.798.837 2.105.99.308.152.514.228.591.355.077.126.077.735-.18 1.446Z" fill="currentColor"/></symbol></svg>